<svg width="13" height="8" viewBox="0 0 13 8" fill="none" xmlns="http://www.w3.org/2000/svg">
<path d="M5.448 7.5L6.768 0H10.368C10.888 0 11.296 0.0799999 11.592 0.24C11.896 0.4 12.108 0.62 12.228 0.9C12.356 1.172 12.42 1.484 12.42 1.836C12.42 2.052 12.396 2.308 12.348 2.604C12.308 2.9 12.232 3.204 12.12 3.516C12.008 3.82 11.848 4.104 11.64 4.368C11.44 4.632 11.184 4.844 10.872 5.004L11.664 7.5H9.156L8.604 5.268H8.112L7.728 7.5H5.448ZM6.3 0.539999L1.224 0H6.396L6.3 0.539999ZM6.096 1.692L1.02 1.152H6.192L6.096 1.692ZM8.436 3.42H8.964C9.196 3.42 9.392 3.396 9.552 3.348C9.712 3.292 9.812 3.148 9.852 2.916C9.892 2.716 9.916 2.564 9.924 2.46C9.94 2.356 9.948 2.3 9.948 2.292C9.948 2.116 9.872 2.012 9.72 1.98C9.576 1.94 9.388 1.92 9.156 1.92H8.7L8.436 3.42ZM5.892 2.844L0.816 2.304H5.988L5.892 2.844ZM5.688 3.996L0.612 3.456H5.784L5.688 3.996ZM5.496 5.148L0.408 4.608H5.592L5.496 5.148ZM5.292 6.3L0.204 5.76H5.388L5.292 6.3ZM5.088 7.464L0 6.924H5.184L5.088 7.464Z" fill="#AD3E3E"/>
</svg>
